<svg xmlns="http://www.w3.org/2000/svg" viewBox="0 0 33.57 33.57"><defs><style>.cls-1{fill:#42210b;}</style></defs><g id="Layer_2" data-name="Layer 2"><g id="Layer_1-2" data-name="Layer 1"><path class="cls-1" d="M31.72,0H1.85A1.85,1.85,0,0,0,0,1.85V31.72a1.85,1.85,0,0,0,1.85,1.85H17.93v-13H13.56V15.5h4.37V11.77c0-4.34,2.65-6.7,6.52-6.7a36.49,36.49,0,0,1,3.91.2V9.8H25.68c-2.11,0-2.52,1-2.52,2.47V15.5h5l-.65,5.07H23.16v13h8.56a1.85,1.85,0,0,0,1.85-1.85V1.85A1.85,1.85,0,0,0,31.72,0Z"/></g></g></svg>