<svg xmlns="http://www.w3.org/2000/svg" viewBox="0 0 111.9 131.12"><defs><style>.cls-1{fill:#896239;}.cls-2,.cls-4{fill:none;stroke-width:0.2px;}.cls-2{stroke:#896239;}.cls-3,.cls-7{fill:#c3996d;}.cls-4{stroke:#c6d21d;}.cls-5{fill:#42210b;}.cls-6{fill:#1c1c1b;}.cls-7{stroke:#42210b;stroke-miterlimit:10;}.cls-8{fill:#a37c52;}</style></defs><g id="Layer_2" data-name="Layer 2"><g id="Layer_1-2" data-name="Layer 1"><path class="cls-1" d="M103.69,55.94A47.81,47.81,0,0,0,55.94,8.18a47.29,47.29,0,0,0-25.55,7.48A30.51,30.51,0,0,0,27,29.14c0,.42,0,.83,0,1.25.47,9.16,6.34,16.34,17,20.83,5.43,2.28,11,4.09,16.34,5.82C77.6,62.65,92.6,67.53,92.6,85.94v.58a47.66,47.66,0,0,0,11.09-30.58"/><path class="cls-2" d="M103.69,55.94A47.81,47.81,0,0,0,55.94,8.18a47.29,47.29,0,0,0-25.55,7.48A30.51,30.51,0,0,0,27,29.14c0,.42,0,.83,0,1.25.47,9.16,6.34,16.34,17,20.83,5.43,2.28,11,4.09,16.34,5.82C77.6,62.65,92.6,67.53,92.6,85.94v.58A47.66,47.66,0,0,0,103.69,55.94Z"/><path class="cls-3" d="M8.16,55.94A47.54,47.54,0,0,1,21.29,23.13a36.91,36.91,0,0,0-2.49,13,29.41,29.41,0,0,0,8.45,20.82l1.2,1.26C37.79,68,46.16,76.84,46.16,88.59a30.85,30.85,0,0,1-3.26,13.24A47.77,47.77,0,0,1,8.16,55.94"/><path class="cls-4" d="M8.16,55.94A47.54,47.54,0,0,1,21.29,23.13a36.91,36.91,0,0,0-2.49,13,29.41,29.41,0,0,0,8.45,20.82l1.2,1.26C37.79,68,46.16,76.84,46.16,88.59a30.85,30.85,0,0,1-3.26,13.24A47.77,47.77,0,0,1,8.16,55.94Z"/><path class="cls-5" d="M55.94,9.49A46.53,46.53,0,0,1,102.41,56a45.89,45.89,0,0,1-8.6,26.81c-1.71-16.87-17-21.75-33.13-27-5.32-1.71-10.83-3.52-16.2-5.8C34.33,45.74,28.77,38.94,28.32,30.32l0-1.18a28.82,28.82,0,0,1,3.14-12.57,46.19,46.19,0,0,1,24.5-7.08"/><path class="cls-6" d="M9.47,55.94a46.38,46.38,0,0,1,8.76-27,37.67,37.67,0,0,0-.71,7.19,30.7,30.7,0,0,0,8.81,21.74l1.18,1.26c9.34,9.8,17.36,18.28,17.36,29.5a29.32,29.32,0,0,1-2.73,11.56A46.64,46.64,0,0,1,9.47,55.94"/><path class="cls-7" d="M10.38,55.94a46.36,46.36,0,0,1,6.53-23.42c-.07,1-.31,2.62-.31,3.59a31.63,31.63,0,0,0,9,22.37l1.2,1.26C36,69.39,44,77.76,44,88.61A27.53,27.53,0,0,1,41.59,99a45.84,45.84,0,0,1-31.21-43"/><path class="cls-5" d="M0,131.12H111.9V0H0ZM8.16,55.94A47.4,47.4,0,0,1,20,24.6c.42-.5-.48.47,0,0a67.21,67.21,0,0,0-1.13,11.51,29.49,29.49,0,0,0,8.42,20.82l1.2,1.26c9.34,9.86,17.73,18.7,17.73,30.45a31.27,31.27,0,0,1-3.25,13.24A47.85,47.85,0,0,1,8.16,55.94M92.89,85.7C92,66.51,76.58,62.39,60.26,57c-5.35-1.76-10.91-3.54-16.33-5.82-10.62-4.49-16.47-11.7-17-20.83,0-.42,0-.83,0-1.25a30.38,30.38,0,0,1,3.44-13.48A47.67,47.67,0,0,1,103.67,56c0,11.54-3.7,21.74-10.78,29.74"/><path class="cls-1" d="M55.94,10.41A45.19,45.19,0,0,0,32.1,17.26a27.68,27.68,0,0,0-2.94,11.88l0,1.15c.42,8.23,5.82,14.76,15.6,18.91,5.38,2.25,10.86,4,16.16,5.74l.28.11c15.5,5,30.56,10,33.1,25.28A44.85,44.85,0,0,0,101.46,56,45.55,45.55,0,0,0,55.94,10.41M78.62,40.65a12.16,12.16,0,0,1-4.54,8.21,14.84,14.84,0,0,1-20.45-2.21,12.15,12.15,0,0,1,1.91-17.3,14.69,14.69,0,0,1,20.33,2.2,12.25,12.25,0,0,1,2.75,9.1"/><path class="cls-1" d="M77.57,40.54a11.21,11.21,0,0,1-4.17,7.53,13.79,13.79,0,0,1-19-2A11.07,11.07,0,0,1,56.2,30.18a13.67,13.67,0,0,1,18.86,2,11.14,11.14,0,0,1,2.51,8.31"/><path class="cls-5" d="M65.93,28.56c-6.43-.68-12.14,3.51-12.77,9.36S57.22,49,63.65,49.67a12.4,12.4,0,0,0,9-2.52,9.83,9.83,0,0,0,3.73-6.71c.63-5.88-4.09-11.2-10.49-11.88"/><polygon class="cls-8" points="7.76 109.33 15.92 109.33 15.92 111.19 10.2 111.19 10.2 115.36 15.6 115.36 15.6 117.22 10.2 117.22 10.2 123.78 7.76 123.78 7.76 109.33"/><path class="cls-8" d="M20.64,109.33h2.94l4.93,14.45H26l-1.26-3.91H19.51l-1.26,3.91H15.71ZM20.09,118h4l-2-6.35h0Z"/><rect class="cls-8" x="30.45" y="109.33" width="2.44" height="14.45"/><path class="cls-8" d="M36.35,109.33h4.38c2.72,0,4.64.94,4.64,3.78,0,2.28-1.36,3-2.86,3.35v.06c2,.44,2.23,1.67,2.57,3.2l.87,4.06h-2.5l-.68-3.12c-.5-2.31-.78-3.07-3-3.07h-1v6.19H36.35Zm2.44,6.5h1c1.52,0,3.12-.31,3.12-2.43,0-1.5-.76-2.34-2.15-2.34H38.81v4.77Z"/><polygon class="cls-8" points="50.56 111.19 46.94 111.19 46.94 109.33 56.65 109.33 56.65 111.19 53 111.19 53 123.78 50.56 123.78 50.56 111.19"/><path class="cls-8" d="M58.59,109.33H63c2.72,0,4.64.94,4.64,3.78,0,2.28-1.37,3-2.86,3.35v.06c2,.44,2.23,1.67,2.57,3.2l.86,4.06H65.69L65,120.66c-.5-2.31-.79-3.07-3-3.07H61v6.19H58.59Zm2.46,6.5h1c1.52,0,3.12-.31,3.12-2.43,0-1.5-.76-2.34-2.15-2.34H61.08v4.77Z"/><path class="cls-8" d="M74.14,109.33h2.93L82,123.78H79.46l-1.26-3.91H73l-1.26,3.91H69.21ZM73.59,118h4l-2-6.35h0Z"/><path class="cls-8" d="M84,109.33h3.57c4.62,0,6.35,2,6.35,7.19,0,6.68-3.36,7.26-6.35,7.26H84Zm2.44,12.72h1.13c2.47,0,3.65-1.08,3.65-5.53,0-3.52-.61-5.46-3.65-5.46H86.46Z"/><polygon class="cls-8" points="96.35 109.33 104.79 109.33 104.79 111.19 98.81 111.19 98.81 115.36 104.48 115.36 104.48 117.22 98.81 117.22 98.81 121.92 104.95 121.92 104.95 123.78 96.35 123.78 96.35 109.33"/></g></g></svg>