<svg xmlns="http://www.w3.org/2000/svg" viewBox="0 0 34.93 34.93"><defs><style>.cls-1{fill:#42210b;}</style></defs><g id="Layer_2" data-name="Layer 2"><g id="Layer_1-2" data-name="Layer 1"><path class="cls-1" d="M17.46,3.15c4.67,0,5.22,0,7.06.1,4.73.21,6.94,2.46,7.16,7.16.08,1.84.1,2.39.1,7.05s0,5.22-.1,7.06c-.22,4.69-2.42,6.94-7.16,7.16-1.84.08-2.39.1-7.06.1s-5.21,0-7-.1c-4.75-.22-6.95-2.47-7.16-7.16-.09-1.84-.1-2.39-.1-7.06s0-5.21.1-7c.21-4.7,2.42-6.95,7.16-7.16C12.25,3.17,12.8,3.15,17.46,3.15Zm0-3.15c-4.74,0-5.33,0-7.2.1C3.92.4.4,3.91.11,10.26,0,12.13,0,12.72,0,17.46s0,5.34.1,7.2C.4,31,3.91,34.53,10.26,34.82c1.87.09,2.46.11,7.2.11s5.34,0,7.2-.11C31,34.53,34.53,31,34.82,24.66c.09-1.86.11-2.45.11-7.2s0-5.33-.11-7.2C34.54,3.93,31,.4,24.66.11,22.8,0,22.21,0,17.46,0Zm0,8.5a9,9,0,1,0,9,9A9,9,0,0,0,17.46,8.5Zm0,14.78a5.82,5.82,0,1,1,5.82-5.82A5.82,5.82,0,0,1,17.46,23.28ZM26.79,6.05a2.1,2.1,0,1,0,2.09,2.09A2.1,2.1,0,0,0,26.79,6.05Z"/></g></g></svg>