<svg xmlns="http://www.w3.org/2000/svg" viewBox="0 0 107.25 104.93"><defs><style>.cls-1{fill:#603813;}.cls-2{fill:#a37c52;}</style></defs><g id="Layer_2" data-name="Layer 2"><g id="Layer_1-2" data-name="Layer 1"><path class="cls-1" d="M53.56,104.93C25.89,104.93,0,82.46,0,53,0,23.83,23.83,0,53.56,0,83,0,107.25,23.56,107.25,52.46,107.25,81.09,83,104.93,53.56,104.93ZM53.42,9.18c-24,0-43.28,20.27-43.28,43.83,0,22.88,19.86,42.74,43.42,42.74,24.24,0,43.56-19.86,43.56-43.15A43.76,43.76,0,0,0,53.42,9.18Z"/><path class="cls-2" d="M87.49,36a.59.59,0,0,0-.43,0c-3.27,1.66-6.88,6.85-7.41,11.79-2.35-1.84-6.52-1.77-9.08-1.17a.56.56,0,0,0-.09,1.06c2,.83,3.84,2.86,5.29,5.33h0c2.83,5.27-20.18,5.9-17.43.1,2.59-3,6-5.44,8.88-5.66a.58.58,0,0,0,.5-.43.69.69,0,0,0,0-.13.56.56,0,0,0-.27-.48c-2.25-1.36-6.19-2.72-9-1.7,1-4.87-.79-10.92-3.39-13.51a.56.56,0,0,0-.79,0c-2.6,2.59-4.42,8.64-3.39,13.51-2.81-1-6.75.34-9,1.7a.56.56,0,0,0,.24,1c2.9.22,6.23,2.62,8.81,5.58,2.79,5.27-20.43,5.89-17.41,0,1.45-2.48,3.3-4.52,5.3-5.35a.56.56,0,0,0-.09-1.06c-2.55-.6-6.72-.67-9.08,1.17-.53-4.94-4.13-10.13-7.41-11.79a.59.59,0,0,0-.43,0l7,21.57,3,9.49,45.85-.8,2.72-8.69h0Z"/></g></g></svg>