<svg xmlns="http://www.w3.org/2000/svg" viewBox="0 0 31.94 31.94"><defs><style>.cls-1{fill:#42210b;fill-rule:evenodd;}</style></defs><g id="Layer_2" data-name="Layer 2"><g id="Layer_1-2" data-name="Layer 1"><path class="cls-1" d="M16,0a16,16,0,0,0-5.82,30.84,15.34,15.34,0,0,1,.06-4.58c.29-1.24,1.87-7.93,1.87-7.93A5.78,5.78,0,0,1,11.6,16c0-2.22,1.29-3.88,2.89-3.88a2,2,0,0,1,2,2.25c0,1.37-.87,3.42-1.32,5.32a2.32,2.32,0,0,0,2.36,2.89c2.84,0,5-3,5-7.32A6.3,6.3,0,0,0,15.9,8.72a6.91,6.91,0,0,0-7.21,6.93,6.2,6.2,0,0,0,1.19,3.64.48.48,0,0,1,.11.46l-.44,1.81c-.07.29-.23.36-.54.22-2-.93-3.24-3.85-3.24-6.19,0-5,3.66-9.67,10.55-9.67,5.55,0,9.85,3.95,9.85,9.23,0,5.5-3.47,9.93-8.29,9.93a4.28,4.28,0,0,1-3.66-1.83l-1,3.79a17.84,17.84,0,0,1-2,4.19A16,16,0,1,0,16,0Z"/></g></g></svg>