<svg xmlns="http://www.w3.org/2000/svg" viewBox="0 0 32.83 26.68"><defs><style>.cls-1{fill:#42210b;}</style></defs><g id="Layer_2" data-name="Layer 2"><g id="Layer_1-2" data-name="Layer 1"><path class="cls-1" d="M32.83,3.16A13.52,13.52,0,0,1,29,4.22a6.71,6.71,0,0,0,3-3.73,13.72,13.72,0,0,1-4.27,1.64A6.74,6.74,0,0,0,16.17,8.27a19.09,19.09,0,0,1-13.88-7,6.75,6.75,0,0,0,2.08,9,6.73,6.73,0,0,1-3-.85,6.74,6.74,0,0,0,5.4,6.69,6.73,6.73,0,0,1-3,.12A6.74,6.74,0,0,0,10,20.86a13.55,13.55,0,0,1-10,2.8,19.07,19.07,0,0,0,10.33,3c12.5,0,19.57-10.56,19.14-20A13.76,13.76,0,0,0,32.83,3.16Z"/></g></g></svg>